<svg id="visual" viewBox="0 0 900 900" width="900" height="900" xmlns="http://www.w3.org/2000/svg" xmlns:xlink="http://www.w3.org/1999/xlink" version="1.1">
    <rect x="0" y="0" width="900" height="900" fill="#D5E7F1"></rect>
    
    <defs>
        <linearGradient id="grad1_0" x1="0%" y1="0%" x2="100%" y2="100%">
            <stop offset="30%" stop-color="#D5E7F1" stop-opacity="1"></stop>
            <stop offset="70%" stop-color="#D5E7F1" stop-opacity="1"></stop>
        </linearGradient>
    </defs>
    
    <defs>
        <linearGradient id="grad2_0" x1="0%" y1="0%" x2="100%" y2="100%">
            <stop offset="30%" stop-color="#D5E7F1" stop-opacity="1"></stop>
            <stop offset="70%" stop-color="#D5E7F1" stop-opacity="1"></stop>
        </linearGradient>
    </defs>
    
    <g transform="translate(900, 0)">
        <path d="M0 286.4C-39 283.9 -78 281.5 -109.6 264.6C-141.2 247.7 -165.5 216.2 -187.4 187.4C-209.3 158.5 -228.7 132.2 -244.8 101.4C-260.9 70.6 -273.7 35.3 -286.4 0L0 0Z" fill="#568EBF"></path>
    </g>
    
    <g transform="translate(0, 900)">
        <path d="M0 -286.4C36.1 -280.1 72.2 -273.8 108.3 -261.5C144.4 -249.1 180.5 -230.7 202.5 -202.5C224.5 -174.3 232.3 -136.4 243.9 -101C255.5 -65.7 271 -32.8 286.4 0L0 0Z" fill="#568EBF"></path>
    </g>
</svg>