<svg version="1.1" xmlns="http://www.w3.org/2000/svg" xmlns:xlink="http://www.w3.org/1999/xlink" x="0px" y="0px"
	 viewBox="0 0 2200 2200" style="enable-background:new 0 0 2200 2200;" xml:space="preserve" fill="#FFFFFF">
<g id="Objects">
	<path d="M289.809,448.03c41.852,21.088,87.156,34.516,134.655,39.91c15.42,1.751,30.8,2.625,46.104,2.625
		c25.85,0,51.474-2.495,76.65-7.471l-6.509,40.049l91.716-68.26L519.53,436.828l23.748,31.74
		c-38.242,7.446-77.554,8.959-117.122,4.467c-45.732-5.193-89.335-18.113-129.598-38.401s-76.591-47.645-107.976-81.311
		c-31.385-33.666-56.13-71.82-73.549-113.405c-1.601-3.821-5.996-5.62-9.815-4.02c-3.821,1.6-5.621,5.995-4.02,9.815
		c18.106,43.225,43.815,82.872,76.413,117.838C210.209,398.519,247.958,426.941,289.809,448.03z"/>
</g>
</svg>